<?xml version="1.0" standalone="no"?>
<!DOCTYPE svg PUBLIC "-//W3C//DTD SVG 20010904//EN"
 "http://www.w3.org/TR/2001/REC-SVG-20010904/DTD/svg10.dtd">
<svg version="1.0" xmlns="http://www.w3.org/2000/svg"
 width="512.000000pt" height="512.000000pt" viewBox="0 0 512.000000 512.000000"
 preserveAspectRatio="xMidYMid meet">
<metadata>
Created by potrace 1.11, written by Peter Selinger 2001-2013
</metadata>
<g transform="translate(0.000000,512.000000) scale(0.100000,-0.100000)"
fill="#000000" stroke="none">
<path d="M549 4771 c-74 -24 -115 -82 -107 -154 5 -42 46 -136 104 -237 79
-138 89 -155 89 -160 0 -3 8 -16 17 -30 18 -29 56 -100 141 -260 77 -147 80
-150 135 -150 24 0 60 -8 80 -17 39 -18 232 -205 232 -224 0 -10 -18 -32 -72
-90 -10 -11 -18 -21 -18 -24 0 -3 -18 -23 -40 -44 -22 -21 -40 -43 -40 -49 0
-7 -4 -12 -9 -12 -5 0 -13 -9 -16 -21 -4 -11 -22 -36 -41 -56 -19 -19 -37 -46
-40 -59 -3 -13 -10 -24 -14 -24 -4 0 -11 -11 -14 -25 -4 -14 -11 -25 -16 -25
-6 0 -10 -6 -10 -14 0 -8 -3 -16 -8 -18 -9 -4 -38 -64 -48 -98 -4 -14 -10 -27
-13 -30 -13 -9 -41 -78 -41 -99 0 -12 -4 -21 -10 -21 -5 0 -12 -22 -16 -50 -4
-27 -10 -50 -14 -50 -5 0 -12 -15 -15 -32 -4 -18 -11 -37 -15 -43 -8 -11 -13
-34 -30 -155 -6 -41 -15 -83 -20 -92 -6 -10 -10 -98 -10 -195 l-1 -178 -82
-50 c-140 -86 -269 -233 -293 -336 -16 -67 -20 -98 -18 -139 8 -221 136 -451
399 -716 203 -204 332 -307 458 -364 121 -55 179 -58 342 -17 6 1 16 6 23 10
6 5 12 6 12 3 0 -8 89 42 124 69 25 19 33 21 60 11 17 -6 33 -14 36 -17 3 -4
20 -10 38 -14 17 -3 32 -11 32 -16 0 -5 6 -9 14 -9 7 0 27 -7 42 -15 16 -8 39
-15 51 -15 12 0 24 -4 27 -9 3 -4 24 -11 46 -15 23 -3 49 -11 58 -16 24 -13
138 -40 171 -40 15 0 33 -6 39 -12 18 -18 548 -18 583 -1 13 6 42 14 64 17 52
6 137 26 150 36 6 4 28 11 50 15 22 4 44 10 50 13 5 4 28 12 51 17 40 11 41
10 95 -38 194 -175 458 -159 761 45 163 111 355 295 512 495 60 75 58 72 114
171 47 84 69 214 49 292 -48 189 -122 292 -285 403 l-63 42 6 45 c3 25 10 56
16 71 6 15 8 110 6 235 -4 197 -14 293 -36 339 -5 11 -13 50 -16 88 -4 37 -10
67 -15 67 -4 0 -11 22 -15 50 -4 27 -11 52 -16 56 -5 3 -9 14 -9 25 0 10 -4
19 -9 19 -5 0 -12 20 -15 45 -4 25 -11 45 -16 45 -4 0 -11 11 -14 25 -4 14
-11 25 -16 25 -6 0 -10 9 -10 20 0 11 -4 20 -9 20 -5 0 -12 16 -15 35 -4 19
-11 35 -16 35 -6 0 -10 6 -10 14 0 8 -6 21 -12 28 -7 7 -22 29 -32 48 -11 19
-25 40 -30 47 -24 28 -33 40 -51 71 -11 17 -23 32 -27 32 -4 0 -8 5 -8 12 0 6
-7 18 -15 27 -13 14 -36 38 -124 136 -10 11 -40 38 -66 60 -25 22 -54 47 -62
55 -9 8 -26 22 -39 31 l-24 15 118 117 c152 151 167 164 228 193 39 19 70 25
129 26 73 1 80 3 109 33 18 18 71 94 119 171 47 76 97 152 111 168 26 30 49
33 128 21 92 -14 183 82 162 172 -11 45 -44 92 -76 109 -59 30 -142 7 -313
-89 -236 -133 -355 -198 -455 -250 -146 -75 -150 -79 -150 -135 0 -24 -8 -60
-17 -80 -10 -21 -80 -99 -156 -174 -138 -136 -139 -136 -170 -126 -18 6 -34
14 -37 17 -10 12 -50 31 -64 31 -7 0 -19 7 -26 15 -7 8 -27 17 -46 21 -19 3
-34 10 -34 15 0 5 -9 9 -19 9 -11 0 -22 4 -25 9 -3 4 -25 11 -48 15 -23 4 -47
11 -54 16 -6 6 -33 13 -60 17 -27 3 -51 9 -54 12 -3 4 -48 14 -100 24 -52 10
-117 22 -145 28 -59 13 -387 6 -455 -9 -25 -5 -72 -15 -105 -22 -33 -6 -69
-16 -80 -20 -11 -5 -39 -12 -62 -15 -24 -4 -45 -11 -48 -15 -3 -5 -26 -12 -50
-16 -25 -3 -48 -10 -51 -15 -3 -5 -14 -9 -25 -9 -10 0 -19 -4 -19 -9 0 -5 -16
-12 -35 -15 -19 -4 -35 -11 -35 -16 0 -6 -4 -10 -10 -10 -16 0 -90 -34 -90
-42 0 -3 -13 -9 -30 -13 -16 -4 -30 -10 -30 -13 0 -4 -22 -18 -50 -31 -27 -13
-52 -32 -55 -42 -4 -11 -14 -19 -24 -19 -9 0 -21 -4 -27 -10 -7 -7 -47 28
-122 103 -136 137 -149 152 -175 202 -24 47 -28 70 -27 152 1 58 -1 63 -36 97
-21 20 -101 75 -178 123 -78 48 -146 92 -152 97 -24 24 -42 62 -38 81 16 70
15 94 -1 129 -32 68 -112 107 -176 87z m3843 -3032 c33 -18 79 -62 93 -89 23
-44 -15 -93 -82 -104 -88 -16 -103 -17 -103 -6 0 20 20 50 34 50 7 0 25 9 38
20 30 23 28 62 -4 84 -14 10 -18 20 -13 35 7 24 9 25 37 10z"/>
<path d="M4489 4735 c-31 -17 -42 -47 -25 -70 10 -14 16 -13 56 9 34 18 45 30
45 47 0 29 -37 36 -76 14z"/>
<path d="M4374 4675 c-38 -17 -57 -54 -39 -78 11 -16 16 -15 59 9 25 14 46 32
46 39 0 11 -27 47 -33 44 -1 0 -16 -7 -33 -14z"/>
<path d="M4235 4599 c-36 -22 -47 -49 -30 -72 11 -16 15 -15 59 9 46 26 60 54
34 71 -21 12 -31 11 -63 -8z"/>
<path d="M383 4553 c-19 -7 -15 -54 5 -79 23 -28 44 -34 66 -19 17 13 16 16
-9 59 -26 44 -35 50 -62 39z"/>
<path d="M4113 4535 c-33 -14 -48 -43 -38 -75 6 -19 7 -19 54 5 65 32 71 52
26 78 -6 3 -24 -1 -42 -8z"/>
<path d="M3985 4464 c-34 -17 -45 -31 -45 -57 0 -29 28 -31 74 -6 34 18 42 27
38 43 -5 19 -20 36 -32 36 -3 0 -18 -7 -35 -16z"/>
<path d="M446 4414 c-14 -14 -14 -18 1 -47 21 -42 42 -57 68 -47 23 9 22 27
-6 75 -23 38 -39 43 -63 19z"/>
<path d="M3862 4402 c-34 -5 -58 -47 -44 -77 l11 -24 48 26 c26 15 49 27 51
28 1 2 -2 13 -8 27 -12 25 -16 26 -58 20z"/>
<path d="M511 4282 c-15 -27 19 -86 50 -90 46 -5 52 10 23 61 -28 50 -56 61
-73 29z"/>
<path d="M581 4152 c-7 -14 -5 -28 8 -53 19 -36 52 -49 76 -29 11 9 9 19 -12
55 -27 48 -55 59 -72 27z"/>
<path d="M660 4032 c-22 -18 -22 -19 -5 -55 19 -40 55 -57 79 -38 12 10 10 19
-11 56 -31 56 -36 59 -63 37z"/>
<path d="M738 3913 c-42 -10 -24 -84 25 -104 43 -18 55 0 32 51 -21 46 -33 58
-57 53z"/>
</g>
</svg>
